<mxfile host="app.diagrams.net" modified="2024-02-12T06:32:42.225Z" agent="Mozilla/5.0 (Windows NT 10.0; Win64; x64) AppleWebKit/537.36 (KHTML, like Gecko) Chrome/121.0.0.0 Safari/537.36" version="23.1.2" etag="YiCqTg-koR5jGUBdjNFY" type="github">
  <diagram name="Halaman-1" id="a62rlob6FeT_h5NHe2VF">
    <mxGraphModel>
      <root>
        <mxCell id="0" />
        <mxCell id="1" parent="0" />
      </root>
    </mxGraphModel>
  </diagram>
</mxfile>
